<svg width="927" height="104" viewBox="0 0 927 104" fill="none" xmlns="http://www.w3.org/2000/svg">
<g filter="url(#filter0_n_171_19)">
<path d="M20.9595 63.3257V102H0.979004V1.49219H31.2524C37.9631 1.49219 43.715 2.2238 48.5083 3.68701C53.3016 5.09977 57.2119 7.09277 60.2393 9.66602C63.3171 12.2393 65.5623 15.3171 66.9751 18.8994C68.3879 22.4818 69.0942 26.4173 69.0942 30.7061C69.0942 33.9857 68.6401 37.1139 67.7319 40.0908C66.8237 43.0173 65.4867 45.7166 63.7207 48.189C62.0052 50.6108 59.8861 52.7804 57.3633 54.6978C54.8405 56.5646 51.9393 58.0783 48.6597 59.2388C49.9211 59.9451 51.1068 60.8029 52.2168 61.812C53.3268 62.7707 54.3612 63.9564 55.3198 65.3691L77.7979 102H59.8608C56.6821 102 54.235 100.663 52.5195 97.9888L34.2041 66.6558C33.4473 65.4448 32.5895 64.5871 31.6309 64.0825C30.7227 63.578 29.4108 63.3257 27.6953 63.3257H20.9595ZM20.9595 49.1729H31.1011C34.3302 49.1729 37.1053 48.744 39.4263 47.8862C41.7977 47.0285 43.7402 45.8428 45.2539 44.3291C46.7676 42.8154 47.8776 41.0243 48.584 38.9556C49.3408 36.8364 49.7192 34.5407 49.7192 32.0684C49.7192 27.1742 48.2056 23.4152 45.1782 20.7915C42.1509 18.1174 37.509 16.7803 31.2524 16.7803H20.9595V49.1729ZM149.622 1.49219V17.3101H108.298V43.875H140.464V59.0874H108.298V86.1821H149.697L149.622 102H88.3179V1.49219H149.622ZM222.581 77.6299C223.64 77.6299 224.548 78.0335 225.305 78.8408L233.252 87.3931C229.619 92.4891 225.053 96.3742 219.553 99.0483C214.104 101.722 207.62 103.06 200.103 103.06C193.291 103.06 187.161 101.798 181.711 99.2754C176.262 96.7021 171.62 93.145 167.786 88.604C164.001 84.0125 161.075 78.5885 159.006 72.332C156.988 66.0251 155.979 59.1379 155.979 51.6704C155.979 44.1525 157.064 37.2653 159.233 31.0088C161.453 24.7018 164.556 19.2778 168.542 14.7368C172.528 10.1958 177.297 6.6639 182.847 4.14111C188.397 1.61833 194.502 0.356934 201.162 0.356934C207.923 0.356934 213.902 1.56787 219.099 3.98975C224.296 6.36117 228.635 9.51465 232.117 13.4502L225.457 22.7593C225.002 23.3143 224.473 23.8188 223.867 24.2729C223.312 24.7271 222.505 24.9541 221.445 24.9541C220.386 24.9541 219.351 24.5505 218.342 23.7432C217.384 22.9359 216.173 22.0529 214.709 21.0942C213.297 20.1356 211.506 19.2526 209.336 18.4453C207.166 17.638 204.391 17.2344 201.011 17.2344C197.327 17.2344 193.972 18.0164 190.945 19.5806C187.917 21.0942 185.319 23.3395 183.149 26.3164C180.98 29.2428 179.29 32.8504 178.079 37.1392C176.918 41.3774 176.338 46.2212 176.338 51.6704C176.338 57.1701 176.994 62.0643 178.306 66.353C179.618 70.6418 181.383 74.2746 183.604 77.2515C185.874 80.1779 188.523 82.4232 191.55 83.9873C194.578 85.501 197.832 86.2578 201.313 86.2578C203.382 86.2578 205.249 86.1569 206.914 85.9551C208.579 85.7028 210.118 85.2992 211.531 84.7441C212.994 84.1387 214.356 83.3818 215.618 82.4736C216.879 81.5654 218.14 80.4302 219.402 79.0679C219.906 78.6642 220.411 78.3363 220.916 78.084C221.471 77.7812 222.026 77.6299 222.581 77.6299ZM263.752 63.3257V102H243.772V1.49219H274.045C280.756 1.49219 286.508 2.2238 291.301 3.68701C296.095 5.09977 300.005 7.09277 303.032 9.66602C306.11 12.2393 308.355 15.3171 309.768 18.8994C311.181 22.4818 311.887 26.4173 311.887 30.7061C311.887 33.9857 311.433 37.1139 310.525 40.0908C309.617 43.0173 308.28 45.7166 306.514 48.189C304.798 50.6108 302.679 52.7804 300.156 54.6978C297.633 56.5646 294.732 58.0783 291.453 59.2388C292.714 59.9451 293.9 60.8029 295.01 61.812C296.12 62.7707 297.154 63.9564 298.113 65.3691L320.591 102H302.654C299.475 102 297.028 100.663 295.312 97.9888L276.997 66.6558C276.24 65.4448 275.382 64.5871 274.424 64.0825C273.516 63.578 272.204 63.3257 270.488 63.3257H263.752ZM263.752 49.1729H273.894C277.123 49.1729 279.898 48.744 282.219 47.8862C284.591 47.0285 286.533 45.8428 288.047 44.3291C289.561 42.8154 290.671 41.0243 291.377 38.9556C292.134 36.8364 292.512 34.5407 292.512 32.0684C292.512 27.1742 290.999 23.4152 287.971 20.7915C284.944 18.1174 280.302 16.7803 274.045 16.7803H263.752V49.1729ZM369.18 85.9551C372.712 85.9551 375.84 85.3748 378.564 84.2144C381.34 83.0539 383.66 81.4141 385.527 79.2949C387.445 77.1758 388.908 74.6025 389.917 71.5752C390.926 68.5479 391.431 65.1673 391.431 61.4336V1.49219H411.26V61.4336C411.26 67.4883 410.276 73.0636 408.308 78.1597C406.391 83.2557 403.616 87.6706 399.983 91.4043C396.35 95.0876 391.935 97.9635 386.738 100.032C381.541 102.101 375.688 103.135 369.18 103.135C362.671 103.135 356.793 102.101 351.545 100.032C346.348 97.9635 341.934 95.0876 338.301 91.4043C334.668 87.6706 331.868 83.2557 329.9 78.1597C327.983 73.0636 327.024 67.4883 327.024 61.4336V1.49219H346.929V61.4336C346.929 65.1673 347.433 68.5479 348.442 71.5752C349.451 74.6025 350.889 77.1758 352.756 79.2949C354.674 81.4141 356.995 83.0539 359.719 84.2144C362.494 85.3748 365.648 85.9551 369.18 85.9551ZM450.464 102H430.483V1.49219H450.464V102ZM536.516 1.49219V17.6885H509.421V102H489.592V17.6885H462.498V1.49219H536.516ZM601.301 59.0874C603.017 62.2661 604.505 65.571 605.767 69.002C606.473 67.236 607.179 65.5205 607.886 63.8555C608.592 62.14 609.374 60.5002 610.232 58.936L641.187 4.59521C641.59 3.83838 641.994 3.25814 642.397 2.85449C642.852 2.40039 643.331 2.09766 643.835 1.94629C644.34 1.74447 644.92 1.61833 645.576 1.56787C646.232 1.51742 646.989 1.49219 647.847 1.49219H662.832V102H645.349V39.1069C645.349 37.7446 645.374 36.2814 645.425 34.7173C645.526 33.1027 645.652 31.4629 645.803 29.7979L614.092 85.9551C612.528 88.8815 610.232 90.3447 607.205 90.3447H604.404C601.326 90.3447 599.006 88.8815 597.441 85.9551L565.352 29.4951C565.553 31.2106 565.705 32.9009 565.806 34.5659C565.907 36.1805 565.957 37.6942 565.957 39.1069V102H548.398V1.49219H563.459C564.317 1.49219 565.049 1.51742 565.654 1.56787C566.31 1.61833 566.89 1.74447 567.395 1.94629C567.95 2.14811 568.429 2.45085 568.833 2.85449C569.287 3.25814 569.716 3.83838 570.12 4.59521L601.301 59.0874ZM743.586 1.49219V17.3101H702.263V43.875H734.429V59.0874H702.263V86.1821H743.662L743.586 102H682.283V1.49219H743.586ZM768.713 1.49219C769.571 1.49219 770.303 1.54264 770.908 1.64355C771.514 1.69401 772.043 1.84538 772.498 2.09766C773.002 2.29948 773.456 2.60221 773.86 3.00586C774.314 3.40951 774.819 3.93929 775.374 4.59521L824.871 69.8345C824.568 66.5044 824.417 63.3509 824.417 60.374V1.49219H841.899V102H831.682C830.118 102 828.806 101.748 827.747 101.243C826.737 100.688 825.728 99.8052 824.719 98.5942L775.374 33.7334C775.676 36.8617 775.828 39.7629 775.828 42.437V102H758.269V1.49219H768.713ZM926.589 1.49219V17.6885H899.495V102H879.666V17.6885H852.571V1.49219H926.589Z" fill="#558BFF"/>
</g>
<defs>
<filter id="filter0_n_171_19" x="0.979004" y="0.356934" width="925.61" height="102.778" filterUnits="userSpaceOnUse" color-interpolation-filters="sRGB">
<feFlood flood-opacity="0" result="BackgroundImageFix"/>
<feBlend mode="normal" in="SourceGraphic" in2="BackgroundImageFix" result="shape"/>
<feTurbulence type="fractalNoise" baseFrequency="0.02222222276031971 0.02222222276031971" stitchTiles="stitch" numOctaves="3" result="noise" seed="7127" />
<feColorMatrix in="noise" type="luminanceToAlpha" result="alphaNoise" />
<feComponentTransfer in="alphaNoise" result="coloredNoise1">
<feFuncA type="discrete" tableValues="1 1 1 1 1 1 1 1 1 1 1 1 1 1 1 1 1 1 1 1 1 1 1 1 1 1 1 1 1 1 1 1 1 1 1 1 1 1 1 1 1 1 1 1 1 1 1 1 1 1 1 0 0 0 0 0 0 0 0 0 0 0 0 0 0 0 0 0 0 0 0 0 0 0 0 0 0 0 0 0 0 0 0 0 0 0 0 0 0 0 0 0 0 0 0 0 0 0 0 0 "/>
</feComponentTransfer>
<feComposite operator="in" in2="shape" in="coloredNoise1" result="noise1Clipped" />
<feFlood flood-color="rgba(0, 0, 0, 0.25)" result="color1Flood" />
<feComposite operator="in" in2="noise1Clipped" in="color1Flood" result="color1" />
<feMerge result="effect1_noise_171_19">
<feMergeNode in="shape" />
<feMergeNode in="color1" />
</feMerge>
</filter>
</defs>
</svg>
