<svg width="466" height="79" viewBox="0 0 466 79" fill="none" xmlns="http://www.w3.org/2000/svg">
<g filter="url(#filter0_n_102_16)">
<path d="M45.4951 15.8887C45.111 16.6569 44.6501 17.2139 44.1123 17.5596C43.613 17.8669 42.9792 18.0205 42.2109 18.0205C41.4811 18.0205 40.6937 17.7516 39.8486 17.2139C39.0036 16.6761 38.0049 16.0999 36.8525 15.4854C35.7386 14.8324 34.4326 14.237 32.9346 13.6992C31.4365 13.1615 29.708 12.8926 27.749 12.8926C24.292 12.8926 21.68 13.7376 19.9131 15.4277C18.1846 17.1178 17.3203 19.3265 17.3203 22.0537C17.3203 23.7822 17.7812 25.2227 18.7031 26.375C19.6634 27.4889 20.9118 28.4684 22.4482 29.3135C24.0231 30.1201 25.79 30.8499 27.749 31.5029C29.7464 32.1559 31.7822 32.8665 33.8564 33.6348C35.9307 34.3646 37.9473 35.248 39.9062 36.2852C41.9036 37.2839 43.6706 38.5514 45.207 40.0879C46.7819 41.6243 48.0303 43.5065 48.9521 45.7344C49.9124 47.9622 50.3926 50.6702 50.3926 53.8584C50.3926 57.3154 49.8164 60.5612 48.6641 63.5957C47.5501 66.6302 45.8984 69.2806 43.709 71.5469C41.5195 73.7747 38.8307 75.5417 35.6426 76.8477C32.4928 78.1536 28.8822 78.8066 24.8105 78.8066C22.5059 78.8066 20.2012 78.557 17.8965 78.0576C15.6302 77.5967 13.4408 76.9245 11.3281 76.041C9.21549 75.1576 7.2181 74.1012 5.33594 72.8721C3.45378 71.6429 1.80208 70.2601 0.380859 68.7236L4.875 61.5215C5.2207 60.9453 5.68164 60.4844 6.25781 60.1387C6.8724 59.793 7.52539 59.6201 8.2168 59.6201C9.13867 59.6201 10.0798 59.985 11.04 60.7148C12.0387 61.4062 13.1911 62.1937 14.4971 63.0771C15.8031 63.9222 17.3203 64.7096 19.0488 65.4395C20.7773 66.1309 22.8324 66.4766 25.2139 66.4766C28.6709 66.4766 31.3597 65.5931 33.2803 63.8262C35.2008 62.0592 36.1611 59.4473 36.1611 55.9902C36.1611 54.0312 35.681 52.4372 34.7207 51.208C33.7988 49.9788 32.5697 48.9609 31.0332 48.1543C29.4967 47.3092 27.7298 46.5986 25.7324 46.0225C23.7734 45.4079 21.7568 44.7549 19.6826 44.0635C17.6468 43.3721 15.6302 42.5462 13.6328 41.5859C11.6738 40.5872 9.92611 39.2812 8.38965 37.668C6.85319 36.0547 5.60482 34.0573 4.64453 31.6758C3.72266 29.2943 3.26172 26.3366 3.26172 22.8027C3.26172 19.9987 3.79948 17.2715 4.875 14.6211C5.95052 11.9323 7.52539 9.55078 9.59961 7.47656C11.6738 5.40234 14.209 3.75065 17.2051 2.52148C20.2396 1.25391 23.6966 0.620117 27.5762 0.620117C31.9551 0.620117 36.0075 1.33073 39.7334 2.75195C43.4977 4.17318 46.7051 6.17057 49.3555 8.74414L45.4951 15.8887ZM92.5107 65.7852C95.1995 65.7852 97.5811 65.3434 99.6553 64.46C101.768 63.5765 103.535 62.3281 104.956 60.7148C106.416 59.1016 107.53 57.1426 108.298 54.8379C109.066 52.5332 109.45 49.9596 109.45 47.1172V1.48438H124.546V47.1172C124.546 51.7266 123.797 55.971 122.299 59.8506C120.839 63.7301 118.727 67.0911 115.961 69.9336C113.195 72.7376 109.834 74.9271 105.878 76.502C101.922 78.0768 97.4658 78.8643 92.5107 78.8643C87.5557 78.8643 83.0807 78.0768 79.0859 76.502C75.1296 74.9271 71.7686 72.7376 69.0029 69.9336C66.2373 67.0911 64.1055 63.7301 62.6074 59.8506C61.1478 55.971 60.418 51.7266 60.418 47.1172V1.48438H75.5713V47.1172C75.5713 49.9596 75.9554 52.5332 76.7236 54.8379C77.4919 57.1426 78.5866 59.1016 80.0078 60.7148C81.4674 62.3281 83.2344 63.5765 85.3086 64.46C87.4212 65.3434 89.8219 65.7852 92.5107 65.7852ZM137.913 78V1.48438H163.898C168.815 1.48438 173.021 1.96452 176.517 2.9248C180.012 3.88509 182.854 5.2487 185.044 7.01562C187.272 8.78255 188.885 10.9336 189.884 13.4688C190.921 15.9655 191.439 18.7695 191.439 21.8809C191.439 23.6478 191.19 25.3571 190.69 27.0088C190.191 28.6605 189.423 30.1969 188.386 31.6182C187.349 33.0394 186.004 34.3454 184.353 35.5361C182.739 36.6885 180.799 37.668 178.533 38.4746C188.405 40.8561 193.341 46.4834 193.341 55.3564C193.341 58.6214 192.745 61.6367 191.555 64.4023C190.364 67.168 188.616 69.5687 186.312 71.6045C184.045 73.6019 181.222 75.1768 177.842 76.3291C174.5 77.443 170.659 78 166.318 78H137.913ZM153.066 44.7549V66.2461H166.03C168.45 66.2461 170.467 65.9388 172.08 65.3242C173.693 64.7096 174.961 63.8838 175.883 62.8467C176.843 61.8096 177.515 60.6188 177.899 59.2744C178.284 57.8916 178.476 56.4704 178.476 55.0107C178.476 53.4359 178.245 52.0146 177.784 50.7471C177.362 49.4795 176.651 48.404 175.652 47.5205C174.692 46.637 173.405 45.9648 171.792 45.5039C170.217 45.0046 168.277 44.7549 165.973 44.7549H153.066ZM153.066 34.3262H163.034C167.298 34.3262 170.582 33.5195 172.887 31.9062C175.191 30.2546 176.344 27.5465 176.344 23.7822C176.344 19.8643 175.345 17.1178 173.348 15.543C171.35 13.9297 168.201 13.123 163.898 13.123H153.066V34.3262ZM230.734 50.6318C230.734 54.8955 230.273 58.7751 229.352 62.2705C228.468 65.7275 227.085 68.6852 225.203 71.1436C223.359 73.6019 221.016 75.5033 218.174 76.8477C215.37 78.1536 212.066 78.8066 208.264 78.8066C206.535 78.8066 204.845 78.6914 203.193 78.4609C201.542 78.2689 199.813 77.9232 198.008 77.4238L198.814 68.4355C198.891 67.6673 199.199 67.0335 199.736 66.5342C200.274 65.9964 201.042 65.7275 202.041 65.7275C202.579 65.7275 203.213 65.8428 203.942 66.0732C204.672 66.3037 205.594 66.4189 206.708 66.4189C208.244 66.4189 209.57 66.1501 210.684 65.6123C211.798 65.0361 212.719 64.1335 213.449 62.9043C214.179 61.6751 214.717 60.1003 215.062 58.1797C215.447 56.2207 215.639 53.8392 215.639 51.0352V1.48438H230.734V50.6318ZM289.734 1.48438V13.5264H258.275V33.75H282.763V45.3311H258.275V65.958H289.792L289.734 78H243.064V1.48438H289.734ZM345.277 59.4473C346.084 59.4473 346.775 59.7546 347.352 60.3691L353.401 66.8799C350.636 70.7594 347.16 73.7171 342.973 75.7529C338.824 77.7887 333.888 78.8066 328.165 78.8066C322.979 78.8066 318.312 77.8464 314.164 75.9258C310.016 73.9668 306.482 71.2588 303.562 67.8018C300.682 64.3063 298.454 60.1771 296.879 55.4141C295.342 50.6126 294.574 45.3695 294.574 39.6846C294.574 33.9613 295.4 28.7181 297.052 23.9551C298.742 19.1536 301.104 15.0244 304.139 11.5674C307.173 8.11035 310.803 5.42155 315.028 3.50098C319.254 1.5804 323.901 0.620117 328.972 0.620117C334.119 0.620117 338.671 1.54199 342.627 3.38574C346.583 5.19108 349.887 7.5918 352.537 10.5879L347.467 17.6748C347.121 18.0973 346.718 18.4814 346.257 18.8271C345.834 19.1729 345.22 19.3457 344.413 19.3457C343.606 19.3457 342.819 19.0384 342.051 18.4238C341.321 17.8092 340.399 17.137 339.285 16.4072C338.21 15.6774 336.846 15.0052 335.194 14.3906C333.543 13.776 331.43 13.4688 328.856 13.4688C326.052 13.4688 323.498 14.0641 321.193 15.2549C318.889 16.4072 316.91 18.1165 315.259 20.3828C313.607 22.6107 312.32 25.3571 311.398 28.6221C310.515 31.8486 310.073 35.5361 310.073 39.6846C310.073 43.8714 310.573 47.5973 311.571 50.8623C312.57 54.1273 313.914 56.8929 315.604 59.1592C317.333 61.387 319.35 63.0964 321.654 64.2871C323.959 65.4395 326.437 66.0156 329.087 66.0156C330.662 66.0156 332.083 65.9388 333.351 65.7852C334.618 65.5931 335.79 65.2858 336.865 64.8633C337.979 64.4023 339.016 63.8262 339.977 63.1348C340.937 62.4434 341.897 61.5791 342.857 60.542C343.242 60.2347 343.626 59.985 344.01 59.793C344.432 59.5625 344.855 59.4473 345.277 59.4473ZM412.574 1.48438V13.8145H391.947V78H376.852V13.8145H356.225V1.48438H412.574ZM460.339 15.8887C459.955 16.6569 459.494 17.2139 458.956 17.5596C458.457 17.8669 457.823 18.0205 457.055 18.0205C456.325 18.0205 455.537 17.7516 454.692 17.2139C453.847 16.6761 452.849 16.0999 451.696 15.4854C450.582 14.8324 449.276 14.237 447.778 13.6992C446.28 13.1615 444.552 12.8926 442.593 12.8926C439.136 12.8926 436.524 13.7376 434.757 15.4277C433.028 17.1178 432.164 19.3265 432.164 22.0537C432.164 23.7822 432.625 25.2227 433.547 26.375C434.507 27.4889 435.756 28.4684 437.292 29.3135C438.867 30.1201 440.634 30.8499 442.593 31.5029C444.59 32.1559 446.626 32.8665 448.7 33.6348C450.774 34.3646 452.791 35.248 454.75 36.2852C456.747 37.2839 458.514 38.5514 460.051 40.0879C461.626 41.6243 462.874 43.5065 463.796 45.7344C464.756 47.9622 465.236 50.6702 465.236 53.8584C465.236 57.3154 464.66 60.5612 463.508 63.5957C462.394 66.6302 460.742 69.2806 458.553 71.5469C456.363 73.7747 453.674 75.5417 450.486 76.8477C447.337 78.1536 443.726 78.8066 439.654 78.8066C437.35 78.8066 435.045 78.557 432.74 78.0576C430.474 77.5967 428.285 76.9245 426.172 76.041C424.059 75.1576 422.062 74.1012 420.18 72.8721C418.298 71.6429 416.646 70.2601 415.225 68.7236L419.719 61.5215C420.064 60.9453 420.525 60.4844 421.102 60.1387C421.716 59.793 422.369 59.6201 423.061 59.6201C423.982 59.6201 424.924 59.985 425.884 60.7148C426.882 61.4062 428.035 62.1937 429.341 63.0771C430.647 63.9222 432.164 64.7096 433.893 65.4395C435.621 66.1309 437.676 66.4766 440.058 66.4766C443.515 66.4766 446.203 65.5931 448.124 63.8262C450.045 62.0592 451.005 59.4473 451.005 55.9902C451.005 54.0312 450.525 52.4372 449.564 51.208C448.643 49.9788 447.413 48.9609 445.877 48.1543C444.34 47.3092 442.574 46.5986 440.576 46.0225C438.617 45.4079 436.601 44.7549 434.526 44.0635C432.491 43.3721 430.474 42.5462 428.477 41.5859C426.518 40.5872 424.77 39.2812 423.233 37.668C421.697 36.0547 420.449 34.0573 419.488 31.6758C418.566 29.2943 418.105 26.3366 418.105 22.8027C418.105 19.9987 418.643 17.2715 419.719 14.6211C420.794 11.9323 422.369 9.55078 424.443 7.47656C426.518 5.40234 429.053 3.75065 432.049 2.52148C435.083 1.25391 438.54 0.620117 442.42 0.620117C446.799 0.620117 450.851 1.33073 454.577 2.75195C458.341 4.17318 461.549 6.17057 464.199 8.74414L460.339 15.8887Z" fill="#558BFF"/>
</g>
<defs>
<filter id="filter0_n_102_16" x="0.380859" y="0.620117" width="464.855" height="78.2441" filterUnits="userSpaceOnUse" color-interpolation-filters="sRGB">
<feFlood flood-opacity="0" result="BackgroundImageFix"/>
<feBlend mode="normal" in="SourceGraphic" in2="BackgroundImageFix" result="shape"/>
<feTurbulence type="fractalNoise" baseFrequency="0.02222222276031971 0.02222222276031971" stitchTiles="stitch" numOctaves="3" result="noise" seed="7127" />
<feColorMatrix in="noise" type="luminanceToAlpha" result="alphaNoise" />
<feComponentTransfer in="alphaNoise" result="coloredNoise1">
<feFuncA type="discrete" tableValues="1 1 1 1 1 1 1 1 1 1 1 1 1 1 1 1 1 1 1 1 1 1 1 1 1 1 1 1 1 1 1 1 1 1 1 1 1 1 1 1 1 1 1 1 1 1 1 1 1 1 1 0 0 0 0 0 0 0 0 0 0 0 0 0 0 0 0 0 0 0 0 0 0 0 0 0 0 0 0 0 0 0 0 0 0 0 0 0 0 0 0 0 0 0 0 0 0 0 0 0 "/>
</feComponentTransfer>
<feComposite operator="in" in2="shape" in="coloredNoise1" result="noise1Clipped" />
<feFlood flood-color="rgba(0, 0, 0, 0.25)" result="color1Flood" />
<feComposite operator="in" in2="noise1Clipped" in="color1Flood" result="color1" />
<feMerge result="effect1_noise_102_16">
<feMergeNode in="shape" />
<feMergeNode in="color1" />
</feMerge>
</filter>
</defs>
</svg>
