<svg width="108" height="29" viewBox="0 0 108 29" fill="none" xmlns="http://www.w3.org/2000/svg">
<g filter="url(#filter0_n_56_36)">
<path d="M12.2534 18.928C12.2534 19.504 12.2694 20.112 12.3014 20.752C12.3334 21.36 12.4294 21.744 12.5894 21.904C12.8134 22.128 13.5974 22.24 14.9414 22.24L16.5734 22.192C16.8614 23.728 17.0054 25.504 17.0054 27.52C16.3974 27.744 15.5014 27.952 14.3174 28.144C13.1654 28.336 12.0614 28.432 11.0054 28.432C8.79738 28.432 7.08538 27.952 5.86938 26.992C4.68538 26 4.09338 24.48 4.09338 22.432V10.624H0.493375V6.256L4.09338 5.92L6.25338 0.639997L12.2534 0.303999V5.92H17.3414V10.624H12.2534V18.928ZM33.3801 28H23.0121L18.1161 5.92H26.5161L28.6761 22.336H28.8201L31.2681 5.92H40.1481L42.7401 22.288H42.9321L44.9481 5.92H53.3961L48.5001 28H38.0841L35.7801 14.656H35.6361L33.3801 28ZM65.8315 18.928C65.8315 19.504 65.8475 20.112 65.8795 20.752C65.9115 21.36 66.0075 21.744 66.1675 21.904C66.3915 22.128 67.1755 22.24 68.5195 22.24L70.1515 22.192C70.4395 23.728 70.5835 25.504 70.5835 27.52C69.9755 27.744 69.0795 27.952 67.8955 28.144C66.7435 28.336 65.6395 28.432 64.5835 28.432C62.3755 28.432 60.6635 27.952 59.4475 26.992C58.2635 26 57.6715 24.48 57.6715 22.432V10.624H54.0715V6.256L57.6715 5.92L59.8315 0.639997L65.8315 0.303999V5.92H70.9195V10.624H65.8315V18.928ZM84.0303 28.624C80.1903 28.624 77.3103 27.728 75.3903 25.936C73.5023 24.112 72.5583 21.248 72.5583 17.344C72.5583 15.2 72.7503 13.328 73.1343 11.728C73.5503 10.096 74.0463 8.96 74.6223 8.32C75.3583 7.488 76.7023 6.8 78.6543 6.256C80.6383 5.712 82.4943 5.44 84.2223 5.44C88.3503 5.44 91.2943 6.32 93.0543 8.08C94.8143 9.84 95.6943 12.656 95.6943 16.528C95.6943 20.688 94.7503 23.744 92.8623 25.696C90.9743 27.648 88.0303 28.624 84.0303 28.624ZM84.1743 23.008C85.4223 23.008 86.2383 22.576 86.6223 21.712C87.0063 20.816 87.1983 19.248 87.1983 17.008C87.1983 15.44 87.1183 14.24 86.9583 13.408C86.7983 12.544 86.4943 11.92 86.0463 11.536C85.6303 11.12 84.9743 10.912 84.0782 10.912C82.7983 10.912 82.0623 11.024 81.8703 11.248C81.6143 11.472 81.4063 12.176 81.2463 13.36C81.0863 14.544 81.0063 15.776 81.0063 17.056C81.0063 19.232 81.2143 20.768 81.6303 21.664C82.0783 22.56 82.9263 23.008 84.1743 23.008ZM103.291 28.384C101.979 28.384 100.891 27.952 100.027 27.088C99.1954 26.224 98.7794 25.056 98.7794 23.584C98.7794 22.304 99.2114 21.232 100.075 20.368C100.971 19.472 102.091 19.024 103.435 19.024C104.715 19.024 105.787 19.472 106.651 20.368C107.515 21.232 107.947 22.304 107.947 23.584C107.947 25.056 107.515 26.224 106.651 27.088C105.819 27.952 104.699 28.384 103.291 28.384Z" fill="#558BFF"/>
</g>
<defs>
<filter id="filter0_n_56_36" x="0.493347" y="0.303955" width="107.454" height="28.3201" filterUnits="userSpaceOnUse" color-interpolation-filters="sRGB">
<feFlood flood-opacity="0" result="BackgroundImageFix"/>
<feBlend mode="normal" in="SourceGraphic" in2="BackgroundImageFix" result="shape"/>
<feTurbulence type="fractalNoise" baseFrequency="0.05000000074505806 0.05000000074505806" stitchTiles="stitch" numOctaves="3" result="noise" seed="6296" />
<feColorMatrix in="noise" type="luminanceToAlpha" result="alphaNoise" />
<feComponentTransfer in="alphaNoise" result="coloredNoise1">
<feFuncA type="discrete" tableValues="1 1 1 1 1 1 1 1 1 1 1 1 1 1 1 1 1 1 1 1 1 1 1 1 1 1 1 1 1 1 1 1 1 1 1 1 1 1 1 1 1 1 1 1 1 1 1 1 1 1 1 0 0 0 0 0 0 0 0 0 0 0 0 0 0 0 0 0 0 0 0 0 0 0 0 0 0 0 0 0 0 0 0 0 0 0 0 0 0 0 0 0 0 0 0 0 0 0 0 0 "/>
</feComponentTransfer>
<feComposite operator="in" in2="shape" in="coloredNoise1" result="noise1Clipped" />
<feFlood flood-color="rgba(0, 0, 0, 0.25)" result="color1Flood" />
<feComposite operator="in" in2="noise1Clipped" in="color1Flood" result="color1" />
<feMerge result="effect1_noise_56_36">
<feMergeNode in="shape" />
<feMergeNode in="color1" />
</feMerge>
</filter>
</defs>
</svg>
