<svg width="464" height="78" viewBox="0 0 464 78" fill="none" xmlns="http://www.w3.org/2000/svg">
<g filter="url(#filter0_n_17_225)">
<path d="M26.8252 0.786133C30.2054 0.786133 33.3359 1.3431 36.2168 2.45703C39.0977 3.57096 41.5944 5.20345 43.707 7.35449C45.8197 9.50553 47.4714 12.1367 48.6621 15.248C49.8529 18.3594 50.4482 21.9316 50.4482 25.9648C50.4482 27.5397 50.2754 28.596 49.9297 29.1338C49.584 29.6331 48.9502 29.8828 48.0283 29.8828H10.3467C10.4235 33.4167 10.9036 36.5088 11.7871 39.1592C12.6706 41.7712 13.8805 43.9414 15.417 45.6699C16.9919 47.3984 18.8548 48.7044 21.0059 49.5879C23.1569 50.4329 25.5576 50.8555 28.208 50.8555C30.6663 50.8555 32.7982 50.5866 34.6035 50.0488C36.4089 49.4727 37.9453 48.8389 39.2129 48.1475C40.5189 47.4561 41.6136 46.8415 42.4971 46.3037C43.3805 45.7275 44.1488 45.4395 44.8018 45.4395C45.2243 45.4395 45.5892 45.5355 45.8965 45.7275C46.2038 45.8812 46.4727 46.1117 46.7031 46.4189L49.584 50.1064C48.3164 51.6045 46.8184 52.9105 45.0898 54.0244C43.3997 55.0999 41.5752 56.0026 39.6162 56.7324C37.6572 57.4238 35.6214 57.9424 33.5088 58.2881C31.4346 58.6338 29.3796 58.8066 27.3438 58.8066C23.4258 58.8066 19.8151 58.1536 16.5117 56.8477C13.2083 55.5417 10.3467 53.6211 7.92676 51.0859C5.54525 48.5124 3.68229 45.3626 2.33789 41.6367C0.99349 37.8724 0.321289 33.5511 0.321289 28.6729C0.321289 24.7549 0.916667 21.1058 2.10742 17.7256C3.33659 14.307 5.08431 11.3493 7.35059 8.85254C9.65527 6.31738 12.4401 4.33919 15.7051 2.91797C19.0085 1.49674 22.7152 0.786133 26.8252 0.786133ZM26.998 8.16113C22.2734 8.16113 18.5283 9.54395 15.7627 12.3096C13.0355 15.0752 11.3262 18.8587 10.6348 23.6602H41.3447C41.3447 21.3939 41.0182 19.3197 40.3652 17.4375C39.7122 15.5169 38.7712 13.8844 37.542 12.54C36.3128 11.1572 34.7956 10.0817 32.9902 9.31348C31.2233 8.54525 29.2259 8.16113 26.998 8.16113ZM85.4219 58H76.2607L55.2881 1.65039H63.6426C64.4108 1.65039 65.0638 1.86165 65.6016 2.28418C66.1393 2.70671 66.5042 3.18685 66.6963 3.72461L78.7383 39.793C79.2376 41.1374 79.6602 42.4434 80.0059 43.7109C80.3516 44.9785 80.6781 46.2653 80.9854 47.5713C81.2542 46.3037 81.5615 45.0361 81.9072 43.7686C82.2913 42.4626 82.7523 41.1374 83.29 39.793L95.5049 3.72461C95.7354 3.14844 96.1003 2.66829 96.5996 2.28418C97.1374 1.86165 97.7327 1.65039 98.3857 1.65039H106.395L85.4219 58ZM137.22 0.786133C140.6 0.786133 143.73 1.3431 146.611 2.45703C149.492 3.57096 151.989 5.20345 154.102 7.35449C156.214 9.50553 157.866 12.1367 159.057 15.248C160.247 18.3594 160.843 21.9316 160.843 25.9648C160.843 27.5397 160.67 28.596 160.324 29.1338C159.979 29.6331 159.345 29.8828 158.423 29.8828H120.741C120.818 33.4167 121.298 36.5088 122.182 39.1592C123.065 41.7712 124.275 43.9414 125.812 45.6699C127.386 47.3984 129.249 48.7044 131.4 49.5879C133.551 50.4329 135.952 50.8555 138.603 50.8555C141.061 50.8555 143.193 50.5866 144.998 50.0488C146.803 49.4727 148.34 48.8389 149.607 48.1475C150.913 47.4561 152.008 46.8415 152.892 46.3037C153.775 45.7275 154.543 45.4395 155.196 45.4395C155.619 45.4395 155.984 45.5355 156.291 45.7275C156.598 45.8812 156.867 46.1117 157.098 46.4189L159.979 50.1064C158.711 51.6045 157.213 52.9105 155.484 54.0244C153.794 55.0999 151.97 56.0026 150.011 56.7324C148.052 57.4238 146.016 57.9424 143.903 58.2881C141.829 58.6338 139.774 58.8066 137.738 58.8066C133.82 58.8066 130.21 58.1536 126.906 56.8477C123.603 55.5417 120.741 53.6211 118.321 51.0859C115.94 48.5124 114.077 45.3626 112.732 41.6367C111.388 37.8724 110.716 33.5511 110.716 28.6729C110.716 24.7549 111.311 21.1058 112.502 17.7256C113.731 14.307 115.479 11.3493 117.745 8.85254C120.05 6.31738 122.835 4.33919 126.1 2.91797C129.403 1.49674 133.11 0.786133 137.22 0.786133ZM137.393 8.16113C132.668 8.16113 128.923 9.54395 126.157 12.3096C123.43 15.0752 121.721 18.8587 121.029 23.6602H151.739C151.739 21.3939 151.413 19.3197 150.76 17.4375C150.107 15.5169 149.166 13.8844 147.937 12.54C146.707 11.1572 145.19 10.0817 143.385 9.31348C141.618 8.54525 139.62 8.16113 137.393 8.16113ZM172.712 58V1.65039H178.531C179.607 1.65039 180.356 1.86165 180.778 2.28418C181.239 2.70671 181.508 3.41732 181.585 4.41602L182.276 12.7129C184.005 8.98698 186.137 6.0485 188.672 3.89746C191.207 1.74642 194.261 0.670898 197.833 0.670898C199.024 0.670898 200.138 0.805339 201.175 1.07422C202.212 1.30469 203.153 1.70801 203.998 2.28418L203.191 9.77441C203.076 10.7347 202.538 11.2148 201.578 11.2148C201.04 11.2148 200.272 11.1188 199.273 10.9268C198.313 10.6963 197.238 10.5811 196.047 10.5811C194.318 10.5811 192.782 10.8499 191.438 11.3877C190.132 11.887 188.941 12.6553 187.865 13.6924C186.828 14.6911 185.906 15.9202 185.1 17.3799C184.293 18.8395 183.544 20.5104 182.853 22.3926V58H172.712ZM230.444 74.5938C230.137 75.362 229.715 75.9574 229.177 76.3799C228.677 76.8024 227.928 77.0137 226.93 77.0137H219.382L229.062 54.6582L207.513 1.65039H216.271C217.154 1.65039 217.826 1.86165 218.287 2.28418C218.748 2.70671 219.094 3.18685 219.324 3.72461L232.461 38.9863C232.768 39.793 233.056 40.5996 233.325 41.4062C233.632 42.2129 233.882 43.0195 234.074 43.8262C234.305 42.9811 234.554 42.1553 234.823 41.3486C235.131 40.5036 235.438 39.6777 235.745 38.8711L248.479 3.72461C248.709 3.14844 249.093 2.66829 249.631 2.28418C250.169 1.86165 250.764 1.65039 251.417 1.65039H259.483L230.444 74.5938ZM290.136 0.786133C294.246 0.786133 297.952 1.47754 301.256 2.86035C304.559 4.20475 307.363 6.14453 309.668 8.67969C311.973 11.1764 313.74 14.2109 314.969 17.7832C316.236 21.3555 316.87 25.3503 316.87 29.7676C316.87 34.2233 316.236 38.2373 314.969 41.8096C313.74 45.3818 311.973 48.4355 309.668 50.9707C307.363 53.4674 304.559 55.4072 301.256 56.79C297.952 58.1344 294.246 58.8066 290.136 58.8066C286.026 58.8066 282.3 58.1344 278.958 56.79C275.655 55.4072 272.831 53.4674 270.488 50.9707C268.184 48.4355 266.397 45.3818 265.13 41.8096C263.901 38.2373 263.286 34.2233 263.286 29.7676C263.286 25.3503 263.901 21.3555 265.13 17.7832C266.397 14.2109 268.184 11.1764 270.488 8.67969C272.831 6.14453 275.655 4.20475 278.958 2.86035C282.3 1.47754 286.026 0.786133 290.136 0.786133ZM290.136 50.9131C292.863 50.9131 295.244 50.4521 297.28 49.5303C299.316 48.57 301.006 47.1872 302.351 45.3818C303.733 43.5765 304.751 41.3678 305.404 38.7559C306.096 36.1439 306.441 33.167 306.441 29.8252C306.441 26.4834 306.096 23.5065 305.404 20.8945C304.751 18.2826 303.733 16.0739 302.351 14.2686C301.006 12.4632 299.316 11.0804 297.28 10.1201C295.244 9.15983 292.863 8.67969 290.136 8.67969C287.37 8.67969 284.95 9.15983 282.876 10.1201C280.84 11.0804 279.131 12.4632 277.748 14.2686C276.404 16.0739 275.386 18.2826 274.694 20.8945C274.041 23.5065 273.715 26.4834 273.715 29.8252C273.715 33.167 274.041 36.1439 274.694 38.7559C275.386 41.3678 276.404 43.5765 277.748 45.3818C279.131 47.1872 280.84 48.57 282.876 49.5303C284.95 50.4521 287.37 50.9131 290.136 50.9131ZM329.258 58V1.65039H335.308C336.037 1.65039 336.633 1.82324 337.094 2.16895C337.555 2.47624 337.824 2.99479 337.9 3.72461L338.765 9.7168C341.185 7.02799 343.893 4.87695 346.889 3.26367C349.885 1.61198 353.342 0.786133 357.26 0.786133C360.333 0.786133 363.021 1.30469 365.326 2.3418C367.669 3.34049 369.628 4.78092 371.203 6.66309C372.778 8.50684 373.969 10.7539 374.775 13.4043C375.582 16.0163 375.985 18.9163 375.985 22.1045V58H365.845V22.1045C365.845 17.9176 364.884 14.6527 362.964 12.3096C361.082 9.96647 358.201 8.79492 354.321 8.79492C351.44 8.79492 348.752 9.48633 346.255 10.8691C343.758 12.2135 341.473 14.0957 339.398 16.5156V58H329.258ZM414.013 0.786133C417.393 0.786133 420.523 1.3431 423.404 2.45703C426.285 3.57096 428.782 5.20345 430.895 7.35449C433.007 9.50553 434.659 12.1367 435.85 15.248C437.04 18.3594 437.636 21.9316 437.636 25.9648C437.636 27.5397 437.463 28.596 437.117 29.1338C436.771 29.6331 436.138 29.8828 435.216 29.8828H397.534C397.611 33.4167 398.091 36.5088 398.975 39.1592C399.858 41.7712 401.068 43.9414 402.604 45.6699C404.179 47.3984 406.042 48.7044 408.193 49.5879C410.344 50.4329 412.745 50.8555 415.396 50.8555C417.854 50.8555 419.986 50.5866 421.791 50.0488C423.596 49.4727 425.133 48.8389 426.4 48.1475C427.706 47.4561 428.801 46.8415 429.685 46.3037C430.568 45.7275 431.336 45.4395 431.989 45.4395C432.412 45.4395 432.777 45.5355 433.084 45.7275C433.391 45.8812 433.66 46.1117 433.891 46.4189L436.771 50.1064C435.504 51.6045 434.006 52.9105 432.277 54.0244C430.587 55.0999 428.763 56.0026 426.804 56.7324C424.845 57.4238 422.809 57.9424 420.696 58.2881C418.622 58.6338 416.567 58.8066 414.531 58.8066C410.613 58.8066 407.003 58.1536 403.699 56.8477C400.396 55.5417 397.534 53.6211 395.114 51.0859C392.733 48.5124 390.87 45.3626 389.525 41.6367C388.181 37.8724 387.509 33.5511 387.509 28.6729C387.509 24.7549 388.104 21.1058 389.295 17.7256C390.524 14.307 392.272 11.3493 394.538 8.85254C396.843 6.31738 399.628 4.33919 402.893 2.91797C406.196 1.49674 409.903 0.786133 414.013 0.786133ZM414.186 8.16113C409.461 8.16113 405.716 9.54395 402.95 12.3096C400.223 15.0752 398.514 18.8587 397.822 23.6602H428.532C428.532 21.3939 428.206 19.3197 427.553 17.4375C426.9 15.5169 425.959 13.8844 424.729 12.54C423.5 11.1572 421.983 10.0817 420.178 9.31348C418.411 8.54525 416.413 8.16113 414.186 8.16113ZM463.909 51.835C463.909 52.7952 463.717 53.7171 463.333 54.6006C462.949 55.4456 462.411 56.1947 461.72 56.8477C461.067 57.4622 460.299 57.9616 459.415 58.3457C458.57 58.7298 457.667 58.9219 456.707 58.9219C455.747 58.9219 454.844 58.7298 453.999 58.3457C453.154 57.9616 452.405 57.4622 451.752 56.8477C451.137 56.1947 450.638 55.4456 450.254 54.6006C449.87 53.7171 449.678 52.7952 449.678 51.835C449.678 50.8363 449.87 49.9144 450.254 49.0693C450.638 48.1859 451.137 47.4176 451.752 46.7646C452.405 46.1117 453.154 45.5931 453.999 45.209C454.844 44.8249 455.747 44.6328 456.707 44.6328C457.667 44.6328 458.57 44.8249 459.415 45.209C460.299 45.5931 461.067 46.1117 461.72 46.7646C462.411 47.4176 462.949 48.1859 463.333 49.0693C463.717 49.9144 463.909 50.8363 463.909 51.835Z" fill="#558BFF"/>
</g>
<defs>
<filter id="filter0_n_17_225" x="0.321289" y="0.670898" width="463.588" height="76.3428" filterUnits="userSpaceOnUse" color-interpolation-filters="sRGB">
<feFlood flood-opacity="0" result="BackgroundImageFix"/>
<feBlend mode="normal" in="SourceGraphic" in2="BackgroundImageFix" result="shape"/>
<feTurbulence type="fractalNoise" baseFrequency="0.02500000037252903 0.02500000037252903" stitchTiles="stitch" numOctaves="3" result="noise" seed="3154" />
<feColorMatrix in="noise" type="luminanceToAlpha" result="alphaNoise" />
<feComponentTransfer in="alphaNoise" result="coloredNoise1">
<feFuncA type="discrete" tableValues="1 1 1 1 1 1 1 1 1 1 1 1 1 1 1 1 1 1 1 1 1 1 1 1 1 1 1 1 1 1 1 1 1 1 1 1 1 1 1 1 1 1 1 1 1 1 1 1 1 1 1 0 0 0 0 0 0 0 0 0 0 0 0 0 0 0 0 0 0 0 0 0 0 0 0 0 0 0 0 0 0 0 0 0 0 0 0 0 0 0 0 0 0 0 0 0 0 0 0 0 "/>
</feComponentTransfer>
<feComposite operator="in" in2="shape" in="coloredNoise1" result="noise1Clipped" />
<feFlood flood-color="rgba(0, 0, 0, 0.25)" result="color1Flood" />
<feComposite operator="in" in2="noise1Clipped" in="color1Flood" result="color1" />
<feMerge result="effect1_noise_17_225">
<feMergeNode in="shape" />
<feMergeNode in="color1" />
</feMerge>
</filter>
</defs>
</svg>
