<svg width="288" height="198" viewBox="0 0 288 198" fill="none" xmlns="http://www.w3.org/2000/svg">
<g filter="url(#filter0_n_136_24)">
<path d="M32.2595 99.8711C32.2683 101.371 32.3193 102.954 32.4125 104.62C32.5051 106.203 32.761 107.202 33.1801 107.616C33.7669 108.196 35.8102 108.475 39.3102 108.455L43.5594 108.305C44.3329 112.3 44.7351 116.923 44.7661 122.173C43.1862 122.765 40.8561 123.321 37.7757 123.839C34.7787 124.357 31.9053 124.624 29.1553 124.64C23.4054 124.674 18.9398 123.45 15.7585 120.969C12.66 118.404 11.095 114.454 11.0636 109.121L10.8825 78.3716L1.50766 78.4268L1.44067 67.052L10.8104 66.1218L16.3543 52.3389L31.9739 51.3719L32.06 65.9967L45.3098 65.9186L45.3819 78.1684L32.1321 78.2465L32.2595 99.8711ZM87.4153 123.172L60.4157 123.331L47.3273 65.9068L69.2019 65.7779L75.0786 108.494L75.4536 108.492L81.5767 65.7051L104.701 65.5689L111.702 108.153L112.202 108.15L117.201 65.4952L139.201 65.3657L126.79 122.94L99.665 123.1L93.4605 88.3855L93.0855 88.3877L87.4153 123.172ZM171.783 99.0494C171.792 100.549 171.843 102.132 171.936 103.799C172.029 105.381 172.285 106.38 172.704 106.794C173.291 107.374 175.334 107.654 178.834 107.633L183.083 107.483C183.857 111.478 184.259 116.101 184.29 121.351C182.71 121.944 180.38 122.499 177.3 123.017C174.303 123.535 171.429 123.802 168.679 123.818C162.929 123.852 158.464 122.628 155.282 120.147C152.184 117.582 150.619 113.633 150.588 108.299L150.406 77.5499L141.032 77.6051L140.965 66.2303L150.334 65.3001L155.878 51.5172L171.498 50.5502L171.584 65.1749L184.834 65.0969L184.906 77.3467L171.656 77.4247L171.783 99.0494ZM219.324 124.02C209.324 124.079 201.81 121.79 196.783 117.152C191.839 112.431 189.336 104.988 189.276 94.8213C189.244 89.238 189.715 84.3602 190.69 80.1877C191.749 75.9314 193.023 72.9655 194.513 71.29C196.417 69.1121 199.906 67.2998 204.981 65.8533C210.139 64.4062 214.968 63.6694 219.468 63.6429C230.218 63.5796 237.898 65.8261 242.508 70.3823C247.119 74.9386 249.453 82.2583 249.513 92.3415C249.577 103.175 247.165 111.147 242.279 116.259C237.392 121.372 229.74 123.958 219.324 124.02ZM219.613 109.393C222.863 109.374 224.981 108.236 225.968 105.98C226.954 103.641 227.43 99.555 227.396 93.7217C227.372 89.6385 227.145 86.5148 226.715 84.3506C226.285 82.1031 225.484 80.4828 224.312 79.4896C223.222 78.4127 221.511 77.8811 219.177 77.8949C215.844 77.9145 213.929 78.2174 213.433 78.8037C212.769 79.391 212.238 81.2275 211.84 84.3132C211.441 87.3989 211.252 90.6084 211.272 93.9417C211.305 99.6083 211.87 103.605 212.967 105.932C214.148 108.258 216.363 109.412 219.613 109.393ZM269.479 123.099C266.062 123.12 263.222 122.011 260.959 119.775C258.779 117.537 257.678 114.502 257.655 110.669C257.635 107.336 258.744 104.537 260.981 102.274C263.3 99.927 266.21 98.7432 269.71 98.7226C273.043 98.703 275.842 99.8532 278.105 102.173C280.369 104.41 281.51 107.195 281.53 110.528C281.552 114.361 280.445 117.41 278.209 119.673C276.055 121.936 273.145 123.078 269.479 123.099Z" fill="#558BFF"/>
</g>
<g filter="url(#filter1_n_136_24)">
<path d="M12.5919 151.707C12.5933 151.947 12.6015 152.2 12.6164 152.467C12.6312 152.72 12.6722 152.88 12.7392 152.946C12.8331 153.039 13.16 153.084 13.72 153.08L14.3999 153.056C14.5237 153.695 14.588 154.435 14.593 155.275C14.3402 155.37 13.9674 155.459 13.4745 155.542C12.995 155.625 12.5353 155.667 12.0953 155.67C11.1753 155.675 10.4608 155.479 9.95176 155.082C9.456 154.672 9.20561 154.04 9.20058 153.187L9.17161 148.267L7.67163 148.276L7.66091 146.456L9.16006 146.307L10.0471 144.102L12.5462 143.947L12.56 146.287L14.68 146.274L14.6915 148.234L12.5715 148.247L12.5919 151.707ZM24.606 146.796C24.7269 146.942 24.8157 147.308 24.8725 147.894C24.9426 148.481 24.9812 149.374 24.9883 150.574L25.0168 155.414L21.5968 155.434L21.5686 150.634C21.5683 150.581 21.5667 150.321 21.564 149.854C21.5612 149.374 21.5261 149.081 21.4588 148.975C21.4185 148.921 21.3183 148.882 21.1581 148.856C21.0113 148.831 20.8379 148.818 20.6379 148.819L20.298 148.841C19.9247 148.857 19.5386 148.946 19.1395 149.108L19.1769 155.448L15.7569 155.468L15.6863 143.468L19.1054 143.308L19.1192 145.648C19.1248 146.608 19.0953 147.248 19.0305 147.569L19.0506 147.589C19.9512 146.557 21.0348 146.037 22.3015 146.03C22.7815 146.027 23.2285 146.091 23.6426 146.222C24.0701 146.352 24.3912 146.544 24.606 146.796ZM32.1624 152.972C32.4957 152.97 33.1155 152.933 34.0217 152.861C34.1417 152.86 34.3617 152.845 34.6815 152.817L34.9936 154.875C33.9698 155.361 32.6379 155.609 30.9979 155.618C29.4646 155.628 28.2824 155.248 27.4512 154.479C26.6333 153.711 26.2198 152.547 26.2106 150.987C26.2059 150.187 26.3013 149.413 26.4969 148.665C26.7058 147.917 26.9428 147.396 27.2077 147.101C27.486 146.806 28.0045 146.549 28.7632 146.331C29.5219 146.114 30.2746 146.003 31.0213 145.998C32.2213 145.991 33.1225 146.199 33.725 146.622C34.3275 147.045 34.7243 147.636 34.9155 148.395C35.1065 149.141 35.2058 150.147 35.2132 151.414C34.3069 151.472 33.4204 151.504 32.5538 151.509L29.7138 151.526C29.7163 151.953 29.8049 152.272 29.9795 152.484C30.1674 152.697 30.4282 152.835 30.7619 152.9C31.0956 152.951 31.5624 152.975 32.1624 152.972ZM29.8953 148.385C29.8156 148.425 29.7566 148.599 29.7184 148.906C29.6802 149.213 29.6556 149.56 29.6445 149.946L30.6845 149.94C31.3111 149.937 31.7644 149.927 32.0444 149.912C32.0406 149.272 31.9446 148.819 31.7563 148.554C31.5814 148.288 31.274 148.157 30.834 148.159C30.474 148.161 30.1611 148.237 29.8953 148.385ZM45.1078 155.295L40.7879 155.321L38.6938 146.133L42.1937 146.112L43.134 152.947L43.194 152.947L44.1737 146.101L47.8736 146.079L48.9938 152.892L49.0738 152.892L49.8736 146.067L53.3935 146.046L51.4077 155.258L47.0678 155.284L46.0751 149.73L46.0151 149.73L45.1078 155.295ZM58.8305 155.475C57.2306 155.484 56.0284 155.118 55.224 154.376C54.4329 153.62 54.0325 152.429 54.0229 150.803C54.0177 149.909 54.0931 149.129 54.2492 148.461C54.4185 147.78 54.6224 147.306 54.8608 147.038C55.1654 146.689 55.7237 146.399 56.5357 146.168C57.361 145.936 58.1337 145.819 58.8536 145.814C60.5736 145.804 61.8024 146.164 62.5401 146.893C63.2777 147.622 63.6513 148.793 63.6608 150.406C63.671 152.139 63.2852 153.415 62.5033 154.233C61.7214 155.051 60.4972 155.465 58.8305 155.475ZM58.8768 153.134C59.3968 153.131 59.7357 152.949 59.8936 152.588C60.0514 152.214 60.1275 151.56 60.122 150.627C60.1182 149.974 60.0819 149.474 60.0132 149.127C59.9444 148.768 59.8162 148.509 59.6286 148.35C59.4542 148.177 59.1804 148.092 58.8071 148.095C58.2738 148.098 57.9674 148.146 57.8879 148.24C57.7818 148.334 57.6969 148.628 57.6331 149.122C57.5693 149.615 57.539 150.129 57.5422 150.662C57.5475 151.569 57.638 152.208 57.8135 152.581C58.0023 152.953 58.3568 153.137 58.8768 153.134ZM70.6389 145.745C70.8122 145.744 70.9924 145.763 71.1793 145.802C71.3795 145.841 71.5264 145.886 71.6201 145.939C71.6218 146.232 71.5913 146.719 71.5287 147.4C71.4659 148.067 71.4087 148.54 71.357 148.821C71.2236 148.808 70.9769 148.803 70.6169 148.805C69.777 148.81 69.0306 148.861 68.3778 148.958L68.4143 155.158L64.9944 155.178L64.9402 145.978L67.8001 145.962L68.2089 147.439L68.2289 147.439C68.6125 146.93 69.0235 146.521 69.4616 146.212C69.8998 145.903 70.2923 145.747 70.6389 145.745ZM72.5617 143.133L75.9808 142.973L76.0523 155.113L72.6324 155.133L72.5617 143.133ZM86.8364 142.909L86.9079 155.049L84.0879 155.066L83.7989 153.527C83.5353 154.049 83.1444 154.465 82.6262 154.774C82.108 155.084 81.5223 155.241 80.8689 155.245C79.829 155.251 78.9934 154.882 78.3624 154.14C77.7447 153.396 77.4314 152.278 77.4226 150.785C77.4159 149.652 77.5438 148.718 77.8061 147.983C78.0685 147.248 78.3787 146.719 78.7368 146.397C78.9623 146.196 79.4213 146.026 80.1138 145.889C80.8197 145.752 81.446 145.681 81.9926 145.678C82.4726 145.675 82.9662 145.719 83.4734 145.809C83.4297 145.17 83.4076 144.816 83.4072 144.75L83.3973 143.07L86.8364 142.909ZM82.3531 152.556C82.7131 152.554 83.0861 152.492 83.4721 152.369L83.4465 148.029C83.0595 147.978 82.6327 147.954 82.166 147.957C81.7661 147.959 81.5129 147.994 81.4067 148.061C81.2606 148.169 81.1424 148.476 81.0521 148.984C80.975 149.477 80.938 149.998 80.9413 150.544C80.9461 151.358 81.0692 151.897 81.3108 152.162C81.5657 152.427 81.9131 152.559 82.3531 152.556ZM95.7741 151.217C95.7755 151.457 95.7836 151.71 95.7986 151.977C95.8134 152.23 95.8543 152.39 95.9214 152.456C96.0153 152.549 96.3422 152.594 96.9022 152.59L97.5821 152.566C97.7058 153.206 97.7702 153.945 97.7751 154.785C97.5223 154.88 97.1495 154.969 96.6567 155.052C96.1772 155.135 95.7174 155.177 95.2774 155.18C94.3574 155.185 93.6429 154.99 93.1339 154.593C92.6382 154.182 92.3878 153.55 92.3827 152.697L92.3538 147.777L90.8538 147.786L90.8431 145.966L92.3422 145.817L93.2292 143.612L95.7284 143.457L95.7422 145.797L97.8621 145.785L97.8737 147.744L95.7537 147.757L95.7741 151.217ZM108.085 145.724L108.139 154.924L105.359 154.941L104.97 153.403C104.017 154.568 102.874 155.155 101.54 155.163C101.06 155.166 100.607 155.102 100.179 154.971C99.765 154.84 99.4505 154.649 99.2357 154.397C99.1148 154.251 99.0193 153.885 98.9492 153.298C98.8924 152.712 98.8605 151.819 98.8534 150.619L98.8249 145.779L102.245 145.759L102.273 150.559C102.275 150.825 102.283 151.139 102.299 151.499C102.314 151.858 102.355 152.085 102.423 152.178C102.517 152.311 102.784 152.376 103.224 152.373L103.544 152.351C103.917 152.336 104.303 152.247 104.702 152.084L104.665 145.744L108.085 145.724ZM113.996 151.11C113.998 151.35 114.006 151.603 114.021 151.869C114.036 152.123 114.077 152.282 114.144 152.349C114.238 152.442 114.565 152.486 115.125 152.483L115.804 152.459C115.928 153.098 115.993 153.838 115.997 154.678C115.745 154.773 115.372 154.862 114.879 154.944C114.399 155.027 113.94 155.07 113.5 155.073C112.58 155.078 111.865 154.882 111.356 154.485C110.86 154.075 110.61 153.443 110.605 152.59L110.576 147.67L109.076 147.679L109.065 145.859L110.565 145.71L111.452 143.504L113.951 143.35L113.964 145.69L116.084 145.677L116.096 147.637L113.976 147.65L113.996 151.11ZM121.603 155.105C120.003 155.114 118.801 154.748 117.996 154.006C117.205 153.251 116.805 152.06 116.795 150.433C116.79 149.54 116.865 148.759 117.022 148.092C117.191 147.411 117.395 146.936 117.633 146.668C117.938 146.32 118.496 146.03 119.308 145.798C120.133 145.567 120.906 145.449 121.626 145.445C123.346 145.434 124.575 145.794 125.312 146.523C126.05 147.252 126.424 148.423 126.433 150.036C126.443 151.77 126.058 153.045 125.276 153.863C124.494 154.681 123.27 155.095 121.603 155.105ZM121.649 152.765C122.169 152.761 122.508 152.579 122.666 152.219C122.824 151.844 122.9 151.19 122.894 150.257C122.891 149.604 122.854 149.104 122.786 148.758C122.717 148.398 122.589 148.139 122.401 147.98C122.227 147.808 121.953 147.723 121.579 147.725C121.046 147.728 120.74 147.776 120.66 147.87C120.554 147.964 120.469 148.258 120.405 148.752C120.342 149.246 120.311 149.759 120.315 150.292C120.32 151.199 120.41 151.839 120.586 152.211C120.775 152.583 121.129 152.768 121.649 152.765ZM133.411 145.375C133.585 145.374 133.765 145.393 133.952 145.432C134.152 145.471 134.299 145.517 134.392 145.569C134.394 145.863 134.364 146.35 134.301 147.03C134.238 147.697 134.181 148.171 134.129 148.451C133.996 148.438 133.749 148.433 133.389 148.435C132.549 148.44 131.803 148.491 131.15 148.589L131.187 154.788L127.767 154.809L127.713 145.609L130.572 145.592L130.981 147.069L131.001 147.069C131.385 146.56 131.796 146.151 132.234 145.842C132.672 145.533 133.065 145.377 133.411 145.375ZM137.064 144.414C136.61 144.416 136.216 144.265 135.881 143.961C135.559 143.656 135.397 143.29 135.395 142.863C135.392 142.437 135.55 142.069 135.868 141.761C136.2 141.452 136.592 141.296 137.045 141.294C137.499 141.291 137.886 141.442 138.208 141.747C138.53 142.052 138.692 142.417 138.695 142.844C138.697 143.271 138.539 143.638 138.221 143.947C137.903 144.255 137.517 144.411 137.064 144.414ZM135.351 145.564L138.77 145.544L138.825 154.743L135.405 154.764L135.351 145.564ZM149.369 146.061C149.49 146.207 149.579 146.573 149.636 147.16C149.706 147.746 149.745 148.639 149.752 149.839L149.78 154.679L146.36 154.699L146.332 149.899L146.327 149.079C146.325 148.652 146.29 148.386 146.222 148.28C146.115 148.147 145.868 148.082 145.481 148.084C145.295 148.085 145.155 148.093 145.061 148.107C144.688 148.122 144.302 148.211 143.903 148.373L143.94 154.713L140.52 154.733L140.466 145.534L143.246 145.517L143.635 147.055C144.588 145.889 145.732 145.303 147.065 145.295C147.545 145.292 147.992 145.356 148.406 145.487C148.834 145.618 149.155 145.809 149.369 146.061ZM156.105 145.282C156.732 145.278 157.385 145.321 158.066 145.41C158.746 145.486 159.54 145.595 160.448 145.736L160.494 153.696C160.506 155.602 159.881 157.086 158.621 158.147C158.461 158.281 158.102 158.397 157.543 158.493C156.983 158.59 156.35 158.64 155.644 158.644C154.11 158.653 152.896 158.461 152 158.066C151.985 157.773 152.003 157.386 152.053 156.906C152.117 156.425 152.182 156.045 152.247 155.764C153.207 155.905 154.148 155.973 155.068 155.968C155.534 155.965 155.928 155.936 156.247 155.881C156.58 155.839 156.787 155.771 156.866 155.677C156.972 155.57 157.05 155.169 157.099 154.476C157.111 154.289 157.116 154.016 157.114 153.656L157.111 153.156C156.781 153.651 156.356 154.007 155.838 154.223C155.319 154.44 154.853 154.549 154.439 154.551C153.319 154.558 152.471 154.196 151.893 153.466C151.315 152.737 151.022 151.665 151.014 150.252C151.009 149.318 151.13 148.444 151.379 147.629C151.64 146.801 151.997 146.226 152.448 145.903C152.741 145.701 153.213 145.552 153.866 145.455C154.532 145.344 155.278 145.286 156.105 145.282ZM155.725 152.044C156.218 152.041 156.664 151.958 157.063 151.796L157.039 147.616C156.892 147.59 156.672 147.565 156.378 147.54C156.245 147.527 156.045 147.522 155.778 147.523C155.365 147.526 155.105 147.567 154.999 147.648C154.853 147.756 154.735 148.056 154.644 148.55C154.567 149.031 154.53 149.538 154.533 150.071C154.537 150.804 154.62 151.317 154.782 151.609C154.957 151.902 155.271 152.047 155.725 152.044ZM169.571 154.822C167.971 154.832 166.769 154.466 165.964 153.724C165.173 152.968 164.773 151.777 164.763 150.151C164.758 149.257 164.833 148.477 164.989 147.809C165.159 147.128 165.363 146.654 165.601 146.386C165.906 146.037 166.464 145.747 167.276 145.516C168.101 145.284 168.874 145.166 169.594 145.162C171.314 145.152 172.543 145.511 173.28 146.24C174.018 146.969 174.392 148.141 174.401 149.754C174.411 151.487 174.025 152.763 173.244 153.581C172.462 154.399 171.237 154.813 169.571 154.822ZM169.617 152.482C170.137 152.479 170.476 152.297 170.634 151.936C170.792 151.562 170.868 150.908 170.862 149.975C170.858 149.321 170.822 148.822 170.753 148.475C170.685 148.116 170.556 147.856 170.369 147.698C170.195 147.525 169.921 147.44 169.547 147.442C169.014 147.446 168.708 147.494 168.628 147.588C168.522 147.682 168.437 147.976 168.373 148.469C168.31 148.963 168.279 149.477 168.282 150.01C168.288 150.917 168.378 151.556 168.554 151.928C168.743 152.301 169.097 152.485 169.617 152.482ZM181.379 145.093C181.553 145.092 181.733 145.111 181.92 145.149C182.12 145.188 182.267 145.234 182.36 145.287C182.362 145.58 182.332 146.067 182.269 146.747C182.206 147.414 182.149 147.888 182.097 148.168C181.964 148.156 181.717 148.151 181.357 148.153C180.517 148.158 179.771 148.209 179.118 148.306L179.155 154.506L175.735 154.526L175.68 145.326L178.54 145.309L178.949 146.787L178.969 146.787C179.353 146.278 179.764 145.869 180.202 145.56C180.64 145.25 181.033 145.095 181.379 145.093ZM188.057 145.093C188.684 145.09 189.338 145.132 190.018 145.222C190.699 145.298 191.493 145.406 192.4 145.548L192.447 153.508C192.458 155.414 191.834 156.898 190.573 157.959C190.414 158.093 190.055 158.208 189.495 158.305C188.936 158.402 188.303 158.452 187.596 158.456C186.063 158.465 184.848 158.272 183.953 157.878C183.938 157.584 183.955 157.198 184.006 156.717C184.07 156.237 184.134 155.857 184.199 155.576C185.16 155.717 186.1 155.785 187.02 155.78C187.487 155.777 187.88 155.748 188.2 155.693C188.533 155.651 188.739 155.583 188.819 155.489C188.925 155.382 189.002 154.981 189.052 154.288C189.064 154.101 189.069 153.828 189.067 153.468L189.064 152.968C188.733 153.463 188.309 153.819 187.79 154.035C187.271 154.251 186.805 154.361 186.392 154.363C185.272 154.37 184.423 154.008 183.846 153.278C183.268 152.548 182.975 151.477 182.967 150.063C182.961 149.13 183.083 148.256 183.331 147.441C183.593 146.613 183.95 146.038 184.401 145.715C184.693 145.513 185.166 145.364 185.818 145.267C186.484 145.156 187.231 145.098 188.057 145.093ZM187.677 151.856C188.171 151.853 188.617 151.77 189.016 151.608L188.991 147.428C188.844 147.402 188.624 147.377 188.331 147.352C188.197 147.339 187.997 147.334 187.731 147.335C187.317 147.338 187.058 147.379 186.951 147.46C186.805 147.567 186.687 147.868 186.597 148.362C186.519 148.842 186.482 149.349 186.486 149.883C186.49 150.616 186.573 151.129 186.735 151.421C186.91 151.714 187.224 151.858 187.677 151.856ZM199.554 154.386L199.227 153.128C198.619 154.131 197.769 154.636 196.676 154.643C195.782 154.648 195.047 154.406 194.471 153.916C193.908 153.412 193.624 152.707 193.619 151.801C193.615 151.241 193.773 150.753 194.09 150.338C194.421 149.909 194.873 149.607 195.445 149.43C196.19 149.212 197.343 149.085 198.903 149.05C198.897 148.17 198.855 147.703 198.774 147.65C198.707 147.597 198.494 147.572 198.134 147.574C197.907 147.575 197.594 147.591 197.194 147.62C196.554 147.65 195.688 147.728 194.596 147.855C194.485 147.135 194.4 146.363 194.342 145.536C195.048 145.385 195.787 145.261 196.56 145.163C197.332 145.052 198.025 144.995 198.639 144.991C199.705 144.985 200.506 145.16 201.042 145.517C201.577 145.86 201.927 146.318 202.09 146.891C202.253 147.463 202.331 148.189 202.323 149.069L202.32 152.009L202.394 154.369L199.554 154.386ZM197.822 152.396C198.169 152.394 198.535 152.325 198.921 152.189L198.912 150.709L198.752 150.71C197.766 150.716 197.219 150.773 197.113 150.88C197.047 150.947 196.994 151.047 196.955 151.181C196.929 151.315 196.917 151.441 196.917 151.561C196.919 151.881 196.994 152.101 197.141 152.22C197.289 152.339 197.516 152.398 197.822 152.396ZM212.747 145.688C212.868 145.834 212.957 146.2 213.014 146.786C213.084 147.373 213.122 148.266 213.13 149.466L213.158 154.306L209.738 154.326L209.71 149.526L209.705 148.706C209.703 148.279 209.668 148.013 209.6 147.906C209.493 147.774 209.246 147.709 208.859 147.711C208.672 147.712 208.533 147.719 208.439 147.733C208.066 147.749 207.68 147.838 207.281 148L207.318 154.34L203.898 154.36L203.844 145.16L206.624 145.144L207.013 146.682C207.966 145.516 209.109 144.929 210.443 144.921C210.923 144.919 211.37 144.983 211.784 145.114C212.211 145.244 212.532 145.436 212.747 145.688ZM216.457 143.946C216.004 143.949 215.609 143.798 215.274 143.493C214.952 143.188 214.79 142.822 214.788 142.396C214.785 141.969 214.943 141.602 215.261 141.293C215.593 140.984 215.985 140.829 216.439 140.826C216.892 140.823 217.279 140.974 217.601 141.279C217.923 141.584 218.085 141.95 218.088 142.376C218.09 142.803 217.932 143.171 217.614 143.479C217.296 143.788 216.91 143.943 216.457 143.946ZM214.744 145.096L218.164 145.076L218.218 154.276L214.798 154.296L214.744 145.096ZM227.88 151.979L227.893 154.219L219.634 154.268L219.62 151.968L224.032 147.221L219.712 147.247L219.699 145.067L227.739 145.02L227.753 147.3L223.36 152.006L227.88 151.979ZM234.729 154.179L234.402 152.921C233.794 153.924 232.944 154.429 231.851 154.436C230.957 154.441 230.223 154.198 229.646 153.709C229.083 153.205 228.799 152.5 228.794 151.594C228.791 151.034 228.948 150.546 229.265 150.131C229.596 149.702 230.048 149.399 230.62 149.223C231.365 149.005 232.518 148.878 234.078 148.842C234.073 147.962 234.03 147.496 233.95 147.443C233.883 147.39 233.669 147.365 233.309 147.367C233.082 147.368 232.769 147.383 232.369 147.412C231.73 147.443 230.863 147.521 229.771 147.648C229.66 146.928 229.575 146.155 229.517 145.329C230.223 145.178 230.962 145.054 231.735 144.956C232.508 144.845 233.201 144.787 233.814 144.784C234.881 144.778 235.682 144.953 236.217 145.31C236.752 145.653 237.102 146.111 237.265 146.684C237.429 147.256 237.506 147.982 237.498 148.862L237.495 151.802L237.569 154.162L234.729 154.179ZM232.997 152.189C233.344 152.187 233.71 152.118 234.096 151.982L234.088 150.502L233.928 150.503C232.941 150.509 232.395 150.566 232.289 150.673C232.222 150.74 232.17 150.84 232.13 150.974C232.104 151.107 232.092 151.234 232.093 151.354C232.094 151.674 232.169 151.894 232.316 152.013C232.464 152.132 232.691 152.191 232.997 152.189ZM243.291 150.348C243.292 150.588 243.301 150.841 243.316 151.108C243.33 151.361 243.371 151.521 243.438 151.587C243.532 151.68 243.859 151.725 244.419 151.721L245.099 151.697C245.223 152.337 245.287 153.076 245.292 153.916C245.039 154.011 244.667 154.1 244.174 154.183C243.694 154.266 243.234 154.309 242.794 154.311C241.874 154.317 241.16 154.121 240.651 153.724C240.155 153.313 239.905 152.681 239.9 151.828L239.871 146.908L238.371 146.917L238.36 145.097L239.859 144.948L240.746 142.743L243.245 142.588L243.259 144.928L245.379 144.916L245.391 146.876L243.271 146.888L243.291 150.348ZM248.175 143.759C247.722 143.762 247.328 143.611 246.992 143.306C246.671 143.001 246.508 142.636 246.506 142.209C246.503 141.782 246.661 141.415 246.979 141.106C247.311 140.798 247.703 140.642 248.157 140.639C248.61 140.637 248.998 140.788 249.319 141.092C249.641 141.397 249.803 141.763 249.806 142.19C249.808 142.616 249.651 142.984 249.332 143.292C249.014 143.601 248.628 143.757 248.175 143.759ZM246.462 144.909L249.882 144.889L249.936 154.089L246.516 154.109L246.462 144.909ZM256.073 154.313C254.473 154.322 253.271 153.956 252.467 153.214C251.676 152.459 251.275 151.268 251.266 149.641C251.26 148.748 251.336 147.967 251.492 147.3C251.661 146.619 251.865 146.144 252.103 145.876C252.408 145.528 252.966 145.238 253.778 145.006C254.604 144.775 255.376 144.657 256.096 144.653C257.816 144.642 259.045 145.002 259.783 145.731C260.52 146.46 260.894 147.631 260.903 149.244C260.914 150.978 260.528 152.253 259.746 153.071C258.964 153.889 257.74 154.303 256.073 154.313ZM256.119 151.973C256.639 151.97 256.978 151.788 257.136 151.427C257.294 151.052 257.37 150.399 257.365 149.465C257.361 148.812 257.325 148.312 257.256 147.966C257.187 147.606 257.059 147.347 256.871 147.188C256.697 147.016 256.423 146.931 256.05 146.933C255.516 146.936 255.21 146.985 255.131 147.078C255.024 147.172 254.94 147.466 254.876 147.96C254.812 148.454 254.782 148.967 254.785 149.5C254.79 150.407 254.881 151.047 255.056 151.419C255.245 151.791 255.599 151.976 256.119 151.973ZM271.086 145.344C271.207 145.49 271.296 145.856 271.353 146.443C271.423 147.029 271.461 147.922 271.468 149.122L271.497 153.962L268.077 153.982L268.049 149.182L268.044 148.362C268.041 147.936 268.006 147.669 267.939 147.563C267.832 147.43 267.585 147.365 267.198 147.367C267.011 147.368 266.871 147.376 266.778 147.39C266.405 147.405 266.019 147.494 265.62 147.657L265.657 153.996L262.237 154.017L262.183 144.817L264.963 144.8L265.352 146.338C266.305 145.172 267.448 144.586 268.782 144.578C269.262 144.575 269.709 144.639 270.123 144.77C270.55 144.901 270.871 145.092 271.086 145.344Z" fill="#558BFF"/>
</g>
<defs>
<filter id="filter0_n_136_24" x="1.34937" y="49.9042" width="280.258" height="75.3968" filterUnits="userSpaceOnUse" color-interpolation-filters="sRGB">
<feFlood flood-opacity="0" result="BackgroundImageFix"/>
<feBlend mode="normal" in="SourceGraphic" in2="BackgroundImageFix" result="shape"/>
<feTurbulence type="fractalNoise" baseFrequency="0.01666666753590107 0.01666666753590107" stitchTiles="stitch" numOctaves="3" result="noise" seed="6296" />
<feColorMatrix in="noise" type="luminanceToAlpha" result="alphaNoise" />
<feComponentTransfer in="alphaNoise" result="coloredNoise1">
<feFuncA type="discrete" tableValues="1 1 1 1 1 1 1 1 1 1 1 1 1 1 1 1 1 1 1 1 1 1 1 1 1 1 1 1 1 1 1 1 1 1 1 1 1 1 1 1 1 1 1 1 1 1 1 1 1 1 1 0 0 0 0 0 0 0 0 0 0 0 0 0 0 0 0 0 0 0 0 0 0 0 0 0 0 0 0 0 0 0 0 0 0 0 0 0 0 0 0 0 0 0 0 0 0 0 0 0 "/>
</feComponentTransfer>
<feComposite operator="in" in2="shape" in="coloredNoise1" result="noise1Clipped" />
<feFlood flood-color="rgba(0, 0, 0, 0.25)" result="color1Flood" />
<feComposite operator="in" in2="noise1Clipped" in="color1Flood" result="color1" />
<feMerge result="effect1_noise_136_24">
<feMergeNode in="shape" />
<feMergeNode in="color1" />
</feMerge>
</filter>
<filter id="filter1_n_136_24" x="7.63501" y="140.502" width="263.885" height="19.0133" filterUnits="userSpaceOnUse" color-interpolation-filters="sRGB">
<feFlood flood-opacity="0" result="BackgroundImageFix"/>
<feBlend mode="normal" in="SourceGraphic" in2="BackgroundImageFix" result="shape"/>
<feTurbulence type="fractalNoise" baseFrequency="0.01666666753590107 0.01666666753590107" stitchTiles="stitch" numOctaves="3" result="noise" seed="6296" />
<feColorMatrix in="noise" type="luminanceToAlpha" result="alphaNoise" />
<feComponentTransfer in="alphaNoise" result="coloredNoise1">
<feFuncA type="discrete" tableValues="1 1 1 1 1 1 1 1 1 1 1 1 1 1 1 1 1 1 1 1 1 1 1 1 1 1 1 1 1 1 1 1 1 1 1 1 1 1 1 1 1 1 1 1 1 1 1 1 1 1 1 0 0 0 0 0 0 0 0 0 0 0 0 0 0 0 0 0 0 0 0 0 0 0 0 0 0 0 0 0 0 0 0 0 0 0 0 0 0 0 0 0 0 0 0 0 0 0 0 0 "/>
</feComponentTransfer>
<feComposite operator="in" in2="shape" in="coloredNoise1" result="noise1Clipped" />
<feFlood flood-color="rgba(0, 0, 0, 0.25)" result="color1Flood" />
<feComposite operator="in" in2="noise1Clipped" in="color1Flood" result="color1" />
<feMerge result="effect1_noise_136_24">
<feMergeNode in="shape" />
<feMergeNode in="color1" />
</feMerge>
</filter>
</defs>
</svg>
